<svg xmlns="http://www.w3.org/2000/svg" viewBox="0 0 33.24 33.24"><defs><style>.cls-1{isolation:isolate;}.cls-2{fill:#eb5424;}.cls-3{fill:#fff;}.cls-4{mix-blend-mode:multiply;}</style></defs><title>Artboard 11</title><g class="cls-1"><g id="Layer_1" data-name="Layer 1"><path d="M9.92,25.09H5.12a.51.51,0,0,1-.5-.5V13.34a.51.51,0,0,1,.5-.5H8.79a.5.5,0,0,1,.5.5.5.5,0,0,1-.5.5H5.62V24.09h4.3a.5.5,0,0,1,.5.5A.5.5,0,0,1,9.92,25.09Z"/><path d="M28.12,25.09H25.24a.5.5,0,0,1-.5-.5.5.5,0,0,1,.5-.5h2.88a.5.5,0,0,1,.5.5A.5.5,0,0,1,28.12,25.09Z"/><path class="cls-2" d="M14.44,28.11H12.73a3.54,3.54,0,0,1-3.52-3.52h0a3.54,3.54,0,0,1,3.52-3.53h1.71Z"/><path d="M20.26,23.59H17.7a.5.5,0,0,1-.5-.5.5.5,0,0,1,.5-.5h2.56a.51.51,0,0,1,.5.5A.5.5,0,0,1,20.26,23.59Z"/><path d="M20.26,26.58H17.7a.5.5,0,0,1,0-1h2.56a.5.5,0,1,1,0,1Z"/><path d="M20.47,21.06h1.71a3.53,3.53,0,0,1,3.52,3.53h0a3.53,3.53,0,0,1-3.52,3.52H20.47Z"/><path d="M9,14.34H9a1.12,1.12,0,0,1-1.12-1.12h0A1.12,1.12,0,0,1,9,12.11H9"/><path class="cls-3" d="M22.4,8.3a3.68,3.68,0,0,0-.58.06,5.18,5.18,0,0,0-9.71,1.8h0a2.93,2.93,0,1,0,0,5.86H22.4a3.86,3.86,0,1,0,0-7.72Z"/><path d="M22.4,16.52H12.06a3.43,3.43,0,0,1-.38-6.84A5.69,5.69,0,0,1,22.09,7.82a1.62,1.62,0,0,1,.31,0,4.36,4.36,0,1,1,0,8.72ZM12.09,10.66a2.43,2.43,0,1,0,0,4.86H22.4a3.36,3.36,0,1,0,0-6.72,2.61,2.61,0,0,0-.48,0,.53.53,0,0,1-.53-.26,4.69,4.69,0,0,0-8.78,1.64.51.51,0,0,1-.52.43Zm0-.5Z"/><g class="cls-4"><path class="cls-2" d="M16.71,6.08a4.83,4.83,0,0,1,3.92,4.11l.95-1.46S19.81,5.51,16.71,6.08Z"/></g></g></g></svg>