<svg id="Layer_1" data-name="Layer 1" xmlns="http://www.w3.org/2000/svg" viewBox="0 0 59.99 55.06"><defs><style>.cls-1{fill:#fff;}.cls-2{fill:#ccc;}</style></defs><title>Artboard 65</title><path class="cls-1" d="M24.71,51.36A23.22,23.22,0,1,1,47.93,28.15,23.23,23.23,0,0,1,24.71,51.36Z"/><path class="cls-2" d="M24.71,5.43A22.72,22.72,0,1,1,2,28.15,22.74,22.74,0,0,1,24.71,5.43m0-1h0A23.72,23.72,0,0,0,1,28.15H1A23.71,23.71,0,0,0,24.71,51.86h0A23.71,23.71,0,0,0,48.43,28.15h0A23.72,23.72,0,0,0,24.71,4.43Z"/><circle class="cls-1" cx="47.19" cy="40.25" r="11.11"/><path class="cls-2" d="M47.19,29.64A10.61,10.61,0,1,1,36.58,40.25,10.62,10.62,0,0,1,47.19,29.64m0-1A11.61,11.61,0,1,0,58.8,40.25,11.61,11.61,0,0,0,47.19,28.64Z"/></svg>