<svg id="Layer_1" data-name="Layer 1" xmlns="http://www.w3.org/2000/svg" viewBox="0 0 33.24 33.24"><defs><style>.cls-1{fill:#fff;}.cls-2{fill:#eb5424;}</style></defs><title>Artboard 20</title><rect class="cls-1" x="5.12" y="7.62" width="23" height="18"/><path d="M28.12,26.12h-23a.5.5,0,0,1-.5-.5v-18a.51.51,0,0,1,.5-.5h23a.5.5,0,0,1,.5.5v18A.5.5,0,0,1,28.12,26.12Zm-22.5-1h22v-17h-22Z"/><path d="M28.12,11.12h-23a.5.5,0,0,1-.5-.5.51.51,0,0,1,.5-.5h23a.5.5,0,0,1,.5.5A.5.5,0,0,1,28.12,11.12Z"/><circle cx="6.62" cy="9.12" r="0.5"/><circle cx="8.62" cy="9.12" r="0.5"/><circle cx="10.62" cy="9.12" r="0.5"/><path d="M27.91,14.74H5.45a.5.5,0,0,1-.5-.5.51.51,0,0,1,.5-.5H27.91a.5.5,0,0,1,.5.5A.5.5,0,0,1,27.91,14.74Z"/><path d="M11.62,17.39H8a.5.5,0,0,1-.5-.5.51.51,0,0,1,.5-.5h3.67a.5.5,0,0,1,.5.5A.5.5,0,0,1,11.62,17.39Z"/><path class="cls-2" d="M13.72,12.9H10.06a.5.5,0,0,1-.5-.5.5.5,0,0,1,.5-.5h3.66a.5.5,0,0,1,.5.5A.5.5,0,0,1,13.72,12.9Z"/><path d="M11.62,19.39H8a.5.5,0,0,1-.5-.5.51.51,0,0,1,.5-.5h3.67a.5.5,0,0,1,.5.5A.5.5,0,0,1,11.62,19.39Z"/><path d="M11.62,21.39H8a.5.5,0,0,1-.5-.5.51.51,0,0,1,.5-.5h3.67a.5.5,0,0,1,.5.5A.5.5,0,0,1,11.62,21.39Z"/><path d="M11.62,23.39H8a.5.5,0,0,1-.5-.5.51.51,0,0,1,.5-.5h3.67a.5.5,0,0,1,.5.5A.5.5,0,0,1,11.62,23.39Z"/><circle cx="8.2" cy="12.4" r="0.62"/><path class="cls-2" d="M19.72,21.83h0a2.79,2.79,0,0,1-1-3.14h0l.63-2h4.09l.63,2h0a2.8,2.8,0,0,1-1,3.14h0L21.37,23Z"/><polygon class="cls-1" points="22.4 19.89 24.05 18.69 22.01 18.69 21.37 16.74 20.74 18.69 18.7 18.69 20.35 19.89 19.72 21.83 21.37 20.63 23.03 21.83 22.4 19.89"/><path d="M14.29,25.87a.5.5,0,0,1-.5-.5V14.8a.51.51,0,0,1,.5-.5.5.5,0,0,1,.5.5V25.37A.5.5,0,0,1,14.29,25.87Z"/></svg>