<svg id="Layer_1" data-name="Layer 1" xmlns="http://www.w3.org/2000/svg" viewBox="0 0 33.24 33.24"><defs><style>.cls-1{fill:#eb5424;}.cls-2{fill:#fff;}</style></defs><title>Artboard 56</title><path class="cls-1" d="M11.2,22.52h0A9.2,9.2,0,0,1,7.85,12.21h0L9.92,5.83H23.33l2.07,6.38h0a9.23,9.23,0,0,1-3.35,10.31h0l-5.43,3.94Z"/><path d="M16.62,27.08,10.9,22.93A9.7,9.7,0,0,1,7.37,12.05L9.55,5.33H23.69l2.18,6.72a9.7,9.7,0,0,1-3.53,10.88Zm-5.13-5,5.13,3.73,5.13-3.73a8.71,8.71,0,0,0,3.17-9.76l-2-6H10.28l-2,6a8.71,8.71,0,0,0,3.17,9.76Z"/><polygon class="cls-2" points="19.78 16.04 24.9 12.32 18.58 12.32 16.62 6.3 14.67 12.32 8.34 12.32 13.46 16.04 11.51 22.05 16.62 18.33 21.74 22.05 19.78 16.04"/></svg>