<svg xmlns="http://www.w3.org/2000/svg" viewBox="0 0 33.24 33.24"><defs><style>.cls-1{isolation:isolate;}.cls-2{fill:#eb5424;}.cls-3{fill:#fff;}.cls-4{mix-blend-mode:multiply;}</style></defs><title>Artboard 16</title><g class="cls-1"><g id="Layer_1" data-name="Layer 1"><rect class="cls-2" x="9.93" y="12.56" width="13.64" height="12.14"/><path d="M23.57,25.2H9.92a.5.5,0,0,1-.5-.5V12.56a.51.51,0,0,1,.5-.5H23.57a.5.5,0,0,1,.5.5V24.7A.5.5,0,0,1,23.57,25.2Zm-13.15-1H23.07V13.06H10.42Z"/><rect class="cls-3" x="8.61" y="9.46" width="16.27" height="4.5"/><path d="M24.88,14.46H8.61a.51.51,0,0,1-.5-.5V9.46a.5.5,0,0,1,.5-.5H24.88a.5.5,0,0,1,.5.5V14A.5.5,0,0,1,24.88,14.46Zm-15.77-1H24.38V10H9.11Z"/><rect class="cls-3" x="8.61" y="23.31" width="16.27" height="4.5"/><path d="M24.88,28.31H8.61a.5.5,0,0,1-.5-.5v-4.5a.5.5,0,0,1,.5-.5H24.88a.5.5,0,0,1,.5.5v4.5A.5.5,0,0,1,24.88,28.31Zm-15.77-1H24.38v-3.5H9.11Z"/><path d="M8.14,26.37H5.24a.5.5,0,0,1-.5-.5.51.51,0,0,1,.5-.5h2.9a.51.51,0,0,1,.5.5A.5.5,0,0,1,8.14,26.37Z"/><path d="M28,26.37H25.11a.5.5,0,0,1-.5-.5.5.5,0,0,1,.5-.5H28a.5.5,0,0,1,.5.5A.5.5,0,0,1,28,26.37Z"/><rect x="7.13" y="24.96" width="1.26" height="1.79"/><rect x="25.11" y="24.96" width="1.26" height="1.79"/><path class="cls-2" d="M22.43,26.1H16.71a.5.5,0,0,1-.5-.5.5.5,0,0,1,.5-.5h5.72a.5.5,0,0,1,.5.5A.5.5,0,0,1,22.43,26.1Z"/><path class="cls-2" d="M22.24,12.15H16.51a.5.5,0,0,1,0-1h5.73a.5.5,0,0,1,0,1Z"/><circle cx="14.03" cy="11.71" r="0.62"/><circle cx="14.03" cy="25.49" r="0.62"/><polygon class="cls-3" points="22.85 9.42 18.64 9.42 19.59 7.04 21.9 7.04 22.85 9.42"/><path d="M22.85,9.92H18.64a.51.51,0,0,1-.42-.22.52.52,0,0,1,0-.47l.95-2.37a.51.51,0,0,1,.47-.32H21.9a.51.51,0,0,1,.47.32l.94,2.37a.5.5,0,0,1-.46.69Zm-3.47-1h2.73l-.55-1.38H19.92Z"/><polygon class="cls-3" points="22.43 4.81 17.3 8.54 19.26 14.57 25.61 14.57 27.57 8.54 22.43 4.81"/><path d="M25.6,15.08H19.26a.5.5,0,0,1-.48-.35l-2-6A.5.5,0,0,1,17,8.14l5.14-3.73a.49.49,0,0,1,.59,0l5.13,3.73a.49.49,0,0,1,.18.55l-2,6A.5.5,0,0,1,25.6,15.08Zm-6-1h5.62L27,8.73l-4.55-3.3-4.54,3.3Z"/><g class="cls-4"><polygon class="cls-2" points="22.43 6.84 19.21 9.18 20.44 12.97 24.43 12.97 25.66 9.18 22.43 6.84"/></g><path class="cls-3" d="M15.39,20.45h0a2.81,2.81,0,0,1-1-3.15h0L15,15.36h4.09l.63,1.94h0a2.82,2.82,0,0,1-1,3.15h0L17,21.65Z"/><polygon class="cls-2" points="18.06 18.51 19.72 17.3 17.67 17.3 17.04 15.36 16.41 17.3 14.37 17.3 16.02 18.51 15.39 20.45 17.04 19.25 18.7 20.45 18.06 18.51"/></g></g></svg>