<svg id="Layer_1" data-name="Layer 1" xmlns="http://www.w3.org/2000/svg" viewBox="0 0 33.24 33.24"><defs><style>.cls-1{fill:#fff;}.cls-1,.cls-3{stroke:#000;stroke-linecap:round;stroke-linejoin:round;}.cls-2{fill:#eb5424;}.cls-3{fill:none;}</style></defs><title>Artboard 59 copy</title><path class="cls-1" d="M14.58,13.39l-.71.19a.89.89,0,0,0-.65,1l.13.73a.88.88,0,0,1-1.31.91l-.64-.37a.88.88,0,0,0-1.16.25l-.43.6a.88.88,0,0,1-1.57-.28l-.19-.71a.88.88,0,0,0-1-.64l-.73.12a.88.88,0,0,1-.91-1.31l.37-.64a.88.88,0,0,0-.25-1.16l-.6-.43a.88.88,0,0,1,.28-1.57l.71-.19a.89.89,0,0,0,.65-1l-.13-.72a.88.88,0,0,1,1.31-.91l.64.37a.89.89,0,0,0,1.16-.26l.43-.6a.88.88,0,0,1,1.57.28l.19.72a.88.88,0,0,0,1,.64l.73-.13a.88.88,0,0,1,.91,1.31l-.37.64a.88.88,0,0,0,.25,1.16l.6.43A.88.88,0,0,1,14.58,13.39Z"/><circle class="cls-1" cx="9.89" cy="11.74" r="2.13"/><circle class="cls-2" cx="9.89" cy="11.63" r="0.67"/><path class="cls-1" d="M29.39,20.41l-.09,0a1,1,0,0,0-.44,1.64l.06.07a1,1,0,0,1-1,1.69l-.09,0A1,1,0,0,0,26.66,25v.08a1,1,0,0,1-1.68,1L24.92,26a1,1,0,0,0-1.65.44l0,.09a1,1,0,0,1-1.94,0l0-.09A1,1,0,0,0,19.62,26l-.07.06a1,1,0,0,1-1.68-1V25a1,1,0,0,0-1.2-1.21l-.09,0a1,1,0,0,1-1-1.69l.06-.07a1,1,0,0,0-.44-1.64l-.09,0a1,1,0,0,1,0-1.95l.09,0a1,1,0,0,0,.44-1.64l-.06-.07a1,1,0,0,1,1-1.69l.09,0a1,1,0,0,0,1.2-1.2v-.09a1,1,0,0,1,1.68-1l.07.06a1,1,0,0,0,1.64-.44l0-.09a1,1,0,0,1,1.94,0l0,.09a1,1,0,0,0,1.64.44l.07-.06a1,1,0,0,1,1.68,1v.09a1,1,0,0,0,1.2,1.2L28,15a1,1,0,0,1,1,1.69l-.06.07a1,1,0,0,0,.44,1.64l.09,0A1,1,0,0,1,29.39,20.41Z"/><circle class="cls-2" cx="22.27" cy="19.44" r="4.55"/><circle class="cls-1" cx="22.27" cy="19.44" r="2.52"/><path class="cls-3" d="M13,22.38l-1.37.17a.49.49,0,0,0-.33.17l-.93,1a.53.53,0,0,1-.91-.29L9.3,22.08a.59.59,0,0,0-.17-.33l-1-.93a.53.53,0,0,1,.29-.91l1.37-.16a.56.56,0,0,0,.32-.17l.93-1a.52.52,0,0,1,.91.29l.17,1.37a.46.46,0,0,0,.17.32l1,.93A.53.53,0,0,1,13,22.38Z"/><circle class="cls-2" cx="10.68" cy="21.07" r="0.67"/></svg>