<svg xmlns="http://www.w3.org/2000/svg" viewBox="0 0 33.24 33.24"><defs><style>.cls-1{isolation:isolate;}.cls-2{fill:#fff;}.cls-3{mix-blend-mode:multiply;}.cls-4{fill:#eb5424;}</style></defs><title>Artboard 13</title><g class="cls-1"><g id="Layer_1" data-name="Layer 1"><rect class="cls-2" x="5.12" y="7.62" width="23" height="18"/><path d="M28.12,26.12h-23a.5.5,0,0,1-.5-.5v-18a.5.5,0,0,1,.5-.5h23a.5.5,0,0,1,.5.5v18A.5.5,0,0,1,28.12,26.12Zm-22.5-1h22v-17h-22Z"/><path d="M28.12,11.12h-23a.5.5,0,1,1,0-1h23a.5.5,0,0,1,0,1Z"/><circle cx="6.62" cy="9.12" r="0.5"/><circle cx="8.62" cy="9.12" r="0.5"/><circle cx="10.62" cy="9.12" r="0.5"/><path d="M20.62,20.12h-8a.5.5,0,0,1-.5-.5v-2a.5.5,0,0,1,.5-.5h8a.5.5,0,0,1,.5.5v2A.5.5,0,0,1,20.62,20.12Zm-7.5-1h7v-1h-7Z"/><g class="cls-3"><rect class="cls-4" x="5.63" y="11.12" width="21.99" height="2.52"/></g></g></g></svg>