<svg xmlns="http://www.w3.org/2000/svg" viewBox="0 0 33.24 33.24"><defs><style>.cls-1{isolation:isolate;}.cls-2{fill:#fff;}.cls-3{mix-blend-mode:multiply;}.cls-4{fill:#eb5424;}</style></defs><title>Artboard 35</title><g class="cls-1"><g id="Layer_1" data-name="Layer 1"><rect class="cls-2" x="5.12" y="8.71" width="23" height="15.83" rx="0.77" ry="0.77"/><path d="M27.35,25H5.89a1.27,1.27,0,0,1-1.27-1.27V9.48A1.27,1.27,0,0,1,5.89,8.21H27.35a1.27,1.27,0,0,1,1.27,1.27V23.76A1.27,1.27,0,0,1,27.35,25ZM5.89,9.21a.28.28,0,0,0-.27.27V23.76a.28.28,0,0,0,.27.27H27.35a.27.27,0,0,0,.27-.27V9.48a.27.27,0,0,0-.27-.27Z"/><g class="cls-3"><rect class="cls-4" x="7.07" y="10.58" width="19.1" height="12.08"/></g><path class="cls-2" d="M10.26,19.42a.46.46,0,0,1-.35-.14.5.5,0,0,1,0-.71l2.25-2.25L9.91,14.07a.5.5,0,0,1,0-.71.48.48,0,0,1,.7,0L13.22,16a.5.5,0,0,1,0,.7l-2.61,2.61A.47.47,0,0,1,10.26,19.42Z"/><path class="cls-2" d="M17.55,19.6H14.89a.5.5,0,0,1-.5-.5.5.5,0,0,1,.5-.5h2.66a.5.5,0,0,1,.5.5A.51.51,0,0,1,17.55,19.6Z"/></g></g></svg>