<svg xmlns="http://www.w3.org/2000/svg" viewBox="0 0 33.24 33.24"><defs><style>.cls-1{isolation:isolate;}.cls-2{fill:#fff;}.cls-3{fill:#eb5424;}.cls-4{mix-blend-mode:darken;}</style></defs><title>Artboard 18</title><g class="cls-1"><g id="Layer_1" data-name="Layer 1"><path class="cls-2" d="M19.6,8.55a3.31,3.31,0,0,0-.06.54,3.13,3.13,0,0,0,3.13,3.13,3.08,3.08,0,0,0,1.57-.44,3.37,3.37,0,0,0,3.11,2.05A11.09,11.09,0,1,1,16.62,5.55C16.94,7.56,18,8.44,19.6,8.55Z"/><path d="M16.62,28.2a11.58,11.58,0,1,1,0-23.15.48.48,0,0,1,.49.42c.28,1.71,1,2.48,2.52,2.58a.5.5,0,0,1,.46.59,2.3,2.3,0,0,0-.05.45A2.61,2.61,0,0,0,24,11.35a.5.5,0,0,1,.72.25,2.88,2.88,0,0,0,2.64,1.73.48.48,0,0,1,.48.37,11.44,11.44,0,0,1,.37,2.91A11.6,11.6,0,0,1,16.62,28.2ZM16.21,6.05A10.54,10.54,0,1,0,27,14.3,4,4,0,0,1,24,12.45a3.45,3.45,0,0,1-1.34.27A3.64,3.64,0,0,1,19,9.09a.34.34,0,0,1,0-.1A3.39,3.39,0,0,1,16.21,6.05Z"/><path class="cls-3" d="M18.1,10c-.24,1.86,2,4.68,5.32,3.72.37,1,.9,1.43,2.56,1.76.65,5.37-4.25,10.37-9.37,10.37a9.19,9.19,0,0,1-9.27-9.27c.12-4.86,4-8.77,8-8.94A2.65,2.65,0,0,0,18.1,10Z"/><g class="cls-4"><path d="M14,8.9a.46.46,0,0,1-.23-.06l-1.12-.58a.5.5,0,0,1-.21-.67.5.5,0,0,1,.68-.21L14.19,8a.49.49,0,0,1,.21.67A.5.5,0,0,1,14,8.9Z"/><path d="M14.78,22.3A.5.5,0,0,1,14.3,22a.52.52,0,0,1,.32-.64L15.74,21a.5.5,0,0,1,.64.31.52.52,0,0,1-.32.64l-1.12.37Z"/><path d="M18.28,12.74a.51.51,0,0,1-.44-.26.5.5,0,0,1,.2-.68l1.25-.69a.5.5,0,0,1,.68.2.51.51,0,0,1-.2.68l-1.25.68A.44.44,0,0,1,18.28,12.74Z"/><path d="M13.28,14.3a.55.55,0,0,1-.34-.13l-.69-.63a.49.49,0,0,1,0-.7.5.5,0,0,1,.71,0l.68.63a.49.49,0,0,1,0,.7A.51.51,0,0,1,13.28,14.3Z"/><path d="M9.78,16.24A.49.49,0,0,1,9.37,16a.51.51,0,0,1,.12-.7l.82-.56a.5.5,0,0,1,.56.82l-.81.57A.47.47,0,0,1,9.78,16.24Z"/><path d="M8.84,11.05a.51.51,0,0,1-.39-.19L8,10.24a.5.5,0,1,1,.78-.63l.5.63a.5.5,0,0,1-.08.7A.51.51,0,0,1,8.84,11.05Z"/><path d="M7.4,20.61a.5.5,0,0,1-.5-.47.51.51,0,0,1,.47-.53l1.07-.06A.49.49,0,0,1,9,20a.5.5,0,0,1-.47.53l-1.06.06Z"/><path d="M12,25.92a.5.5,0,0,1-.5-.5V25a.5.5,0,0,1,.5-.5.5.5,0,0,1,.5.5v.43A.5.5,0,0,1,12,25.92Z"/><path d="M25.84,19.42a.53.53,0,0,1-.24-.06l-.81-.43a.51.51,0,0,1-.2-.68.48.48,0,0,1,.67-.2l.82.43a.51.51,0,0,1,.2.68A.49.49,0,0,1,25.84,19.42Z"/><path d="M22.09,14.8a.48.48,0,0,1-.46-.32.5.5,0,0,1,.27-.65l.94-.37a.5.5,0,0,1,.65.28.5.5,0,0,1-.28.65l-.93.37A.43.43,0,0,1,22.09,14.8Z"/><path d="M17.4,18.17a.52.52,0,0,1-.35-.14l-.56-.57a.49.49,0,1,1,.7-.7l.57.56a.51.51,0,0,1,0,.71A.54.54,0,0,1,17.4,18.17Z"/><path d="M12.72,19.05h-.1a.51.51,0,0,1-.4-.59l.07-.31a.5.5,0,0,1,1,.19l-.06.32A.51.51,0,0,1,12.72,19.05Z"/><path d="M19.78,23.42H19.7a.51.51,0,0,1-.42-.58l.25-1.5a.51.51,0,0,1,.58-.41.5.5,0,0,1,.41.57L20.27,23A.49.49,0,0,1,19.78,23.42Z"/></g></g></g></svg>