<svg id="Layer_1" data-name="Layer 1" xmlns="http://www.w3.org/2000/svg" viewBox="0 0 33.24 33.24"><defs><style>.cls-1,.cls-3{fill:#fff;stroke:#000;stroke-linejoin:round;}.cls-2{fill:#eb5424;}.cls-3{stroke-linecap:round;}</style></defs><title>Artboard 33</title><polygon class="cls-1" points="15.97 16.63 13.2 26.91 21.34 26.91 18.64 16.63 15.97 16.63"/><rect class="cls-1" x="5.41" y="5.29" width="23.71" height="18.28" rx="1.55" ry="1.55"/><rect class="cls-1" x="7.58" y="7.38" width="19.38" height="14.1" rx="0.09" ry="0.09"/><path class="cls-2" d="M22.45,15.1l-.06,0a.71.71,0,0,0-.31,1.13l0,.05a.71.71,0,0,1-.67,1.16h-.06a.71.71,0,0,0-.83.82v.06a.71.71,0,0,1-1.16.67l0,0a.71.71,0,0,0-1.13.31l0,.06a.71.71,0,0,1-1.34,0l0-.06A.71.71,0,0,0,15.72,19l-.05,0a.71.71,0,0,1-1.16-.67v-.06a.7.7,0,0,0-.82-.82h-.07A.71.71,0,0,1,13,16.3l0-.05a.71.71,0,0,0-.3-1.13l-.06,0a.72.72,0,0,1,0-1.35l.06,0A.71.71,0,0,0,13,12.6l0,0a.71.71,0,0,1,.67-1.16h.07a.7.7,0,0,0,.82-.82v-.06a.71.71,0,0,1,1.16-.67l.05,0a.71.71,0,0,0,1.13-.31l0-.06a.71.71,0,0,1,1.34,0l0,.06a.71.71,0,0,0,1.13.31l0,0a.72.72,0,0,1,1.17.67l0,.06a.71.71,0,0,0,.83.82h.06a.71.71,0,0,1,.67,1.16l0,0a.71.71,0,0,0,.31,1.13l.06,0A.72.72,0,0,1,22.45,15.1Z"/><circle class="cls-2" cx="17.54" cy="14.43" r="3.13"/><circle class="cls-3" cx="17.54" cy="14.43" r="1.73"/></svg>