<svg id="Layer_1" data-name="Layer 1" xmlns="http://www.w3.org/2000/svg" viewBox="0 0 33.24 33.24"><defs><style>.cls-1{fill:#fff;}.cls-2{fill:#eb5424;}</style></defs><title>Artboard 64</title><polygon class="cls-1" points="16.68 4.88 5.17 18.37 16.68 27.89 28.18 18.37 16.68 4.88"/><path d="M16.67,28.39a.47.47,0,0,1-.31-.12L4.86,18.75a.46.46,0,0,1-.18-.34A.5.5,0,0,1,4.79,18L16.29,4.56a.52.52,0,0,1,.76,0L28.55,18a.5.5,0,0,1,.12.37.46.46,0,0,1-.18.34L17,28.27A.47.47,0,0,1,16.67,28.39ZM5.88,18.31l10.79,8.93,10.79-8.93L16.67,5.66Z"/><polygon class="cls-2" points="16.68 8.04 8.08 18.12 16.68 25.23 25.27 18.12 16.68 8.04"/><ellipse class="cls-1" cx="19.97" cy="16.54" rx="1.24" ry="1.56"/><path d="M18.5,19.59l-.17-.36-.26-.3s0-.08,0-.1a.91.91,0,0,1,.14-1.1l.06-.08a1.11,1.11,0,0,1,.06-1.25l.06-.09c.14-.2.2-.29.17-.35a1.22,1.22,0,0,1,0-.91,1,1,0,0,1,.55-.51,1,1,0,0,1,1.24.72l-.73.31.37-.16-.37.17a.7.7,0,0,0-.23-.3.22.22,0,0,0-.1.09.56.56,0,0,0,0,.3,1.1,1.1,0,0,1-.26,1.09l-.06.09c-.12.18-.1.26-.05.36a.84.84,0,0,1-.13,1.05c-.08.09-.07.12,0,.19a.85.85,0,0,1,.05.67A.8.8,0,0,1,18.5,19.59Z"/><path d="M18,20l-.35-.73.17.37-.25-.31a.32.32,0,0,0,0-.09.91.91,0,0,1,.13-1.1l.06-.08a1.11,1.11,0,0,1,.06-1.25l.07-.1c.14-.2.19-.29.17-.35a1,1,0,0,1,.58-1.44l.29.75c-.24.09-.24.1-.12.41a1.13,1.13,0,0,1-.26,1.09l-.07.09c-.12.18-.1.26,0,.36a.84.84,0,0,1-.14,1.05c-.08.09-.07.11,0,.19A.88.88,0,0,1,18,20Z"/><path d="M21.44,19.59a.76.76,0,0,1-.36-.47.81.81,0,0,1,.05-.67c0-.07.05-.1,0-.19A.84.84,0,0,1,21,17.21c.05-.1.07-.18,0-.36l-.06-.09a1.1,1.1,0,0,1-.26-1.09.46.46,0,0,0,0-.3s0,0-.1-.09a.63.63,0,0,0-.22.29l-.74-.31c.22-.5.7-.93,1.24-.72a.93.93,0,0,1,.55.51,1.22,1.22,0,0,1,0,.91c0,.06,0,.15.17.35l.07.09a1.06,1.06,0,0,1,.09,1.18c0,.07,0,.09,0,.15a.92.92,0,0,1,.13,1.11.92.92,0,0,0,0,.09l-.18.14Z"/><path d="M21.92,20a.88.88,0,0,1-.3-1.14c0-.08,0-.1,0-.19a.83.83,0,0,1-.14-1.05c.05-.1.08-.18-.05-.36l-.06-.09A1.13,1.13,0,0,1,21.08,16c.12-.31.12-.32-.12-.41l.29-.75a1,1,0,0,1,.58,1.44c0,.06,0,.15.17.35l.07.1A1.1,1.1,0,0,1,22.16,18c0,.07,0,.09,0,.15a.9.9,0,0,1,.13,1.11.2.2,0,0,0,0,.08l-.18.15Z"/><ellipse class="cls-1" cx="13.44" cy="16.54" rx="1.24" ry="1.56"/><path d="M12,19.59l-.17-.36-.26-.3s0-.08,0-.1a.9.9,0,0,1,.14-1.1c0-.06,0-.08,0-.08a1.11,1.11,0,0,1,.06-1.25l.07-.09c.14-.2.19-.29.17-.35a1.22,1.22,0,0,1,0-.91.93.93,0,0,1,.55-.51,1,1,0,0,1,1.24.72l-.73.31.36-.16-.36.17a.7.7,0,0,0-.23-.3c-.08,0-.09.07-.1.09a.41.41,0,0,0,0,.3,1.15,1.15,0,0,1-.26,1.1l-.06.08c-.13.18-.1.26-.05.36a.84.84,0,0,1-.14,1.05c-.07.09-.07.12,0,.19a.85.85,0,0,1,.06.67A.84.84,0,0,1,12,19.59Z"/><path d="M11.48,20l-.34-.73.17.37-.26-.3a.26.26,0,0,0,0-.1.91.91,0,0,1,.13-1.1l0-.15a1.09,1.09,0,0,1,.1-1.18l.07-.1c.14-.2.19-.29.17-.35a1,1,0,0,1,.57-1.44l.29.75c-.23.09-.24.1-.12.41a1.11,1.11,0,0,1-.26,1.09l-.06.09c-.12.18-.1.26-.05.36a.84.84,0,0,1-.13,1.05c-.08.08-.07.12,0,.19A.9.9,0,0,1,11.48,20Z"/><path d="M14.9,19.59a.84.84,0,0,1-.36-.47.85.85,0,0,1,.06-.67c0-.07,0-.1,0-.19a.84.84,0,0,1-.14-1.05c.06-.1.08-.18,0-.36l-.07-.08a1.15,1.15,0,0,1-.26-1.1.41.41,0,0,0,0-.3s0,0-.11-.09a.91.91,0,0,0-.22.3L13,15.26a1,1,0,0,1,1.24-.72.93.93,0,0,1,.55.51,1.22,1.22,0,0,1,0,.91c0,.06,0,.15.17.35l.07.09a1.06,1.06,0,0,1,.09,1.18l-.27.42.3-.27a.92.92,0,0,1,.13,1.11.23.23,0,0,0,0,.09l-.18.14Z"/><path d="M15.39,20a.9.9,0,0,1-.31-1.14c0-.07.05-.1,0-.19a.84.84,0,0,1-.13-1.05c.05-.1.07-.18-.05-.36l-.06-.09a1.12,1.12,0,0,1-.26-1.1c.12-.3.11-.31-.12-.4l.29-.75a1,1,0,0,1,.57,1.44c0,.06,0,.15.17.35l.07.1a1.09,1.09,0,0,1,.1,1.18c0,.07,0,.09,0,.15a.92.92,0,0,1,.13,1.11.31.31,0,0,0,0,.09l-.19.14Z"/><path class="cls-2" d="M14.19,21.15,14,20.7l-.3-.39s.13-.23.07-.33a1.34,1.34,0,0,1,.2-1.65c.17-.18.17-.21.06-.42a1.6,1.6,0,0,1,.15-1.77l.11-.16c.27-.38.37-.55.31-.73a1.81,1.81,0,0,1,0-1.37,1.42,1.42,0,0,1,.83-.76c.8-.31,1.53.35,1.85,1.09l-.91.41c-.08-.17-.37-.64-.58-.57a.4.4,0,0,0-.27.23.83.83,0,0,0,0,.61,1.68,1.68,0,0,1-.42,1.66l-.1.15c-.23.34-.21.51-.09.74A1.24,1.24,0,0,1,14.69,19a.36.36,0,0,0-.07.48,1.25,1.25,0,0,1,.09,1A1.19,1.19,0,0,1,14.19,21.15Z"/><path class="cls-2" d="M13.38,21.76l-.21-.45-.3-.4s.13-.23.07-.32a1.34,1.34,0,0,1,.2-1.65c.17-.18.17-.22.06-.42a1.62,1.62,0,0,1,.15-1.78l.11-.16c.27-.38.37-.55.31-.72a1.75,1.75,0,0,1-.11-1.36,1.65,1.65,0,0,1,1-.82l.36.94a.69.69,0,0,0-.41.28c-.06.14.05.41.12.59a1.69,1.69,0,0,1-.42,1.67l-.1.15a.61.61,0,0,0-.09.74,1.22,1.22,0,0,1-.21,1.56.37.37,0,0,0-.07.49,1.27,1.27,0,0,1-.43,1.66Z"/><path class="cls-2" d="M19.23,21.15a1.14,1.14,0,0,1-.51-.69,1.2,1.2,0,0,1,.08-1,.35.35,0,0,0-.07-.48,1.25,1.25,0,0,1-.21-1.57c.12-.23.14-.4-.09-.74l-.1-.15a1.68,1.68,0,0,1-.42-1.66.89.89,0,0,0,.05-.61.45.45,0,0,0-.28-.23c-.21-.07-.5.4-.58.57l-.91-.41c.32-.74,1-1.4,1.85-1.09a1.42,1.42,0,0,1,.83.76,1.86,1.86,0,0,1,0,1.37c-.07.18,0,.35.3.73l.11.15a1.62,1.62,0,0,1,.15,1.78c-.11.21-.11.24.06.42a1.34,1.34,0,0,1,.2,1.65c-.06.1,0,.28.07.33l-.19.17Z"/><path class="cls-2" d="M20,21.76a1.19,1.19,0,0,1-.52-.69,1.24,1.24,0,0,1,.09-1,.37.37,0,0,0-.07-.49,1.22,1.22,0,0,1-.21-1.56.61.61,0,0,0-.09-.74l-.1-.15a1.69,1.69,0,0,1-.42-1.67,1,1,0,0,0,.12-.59.69.69,0,0,0-.41-.28l.36-.94a1.65,1.65,0,0,1,1,.82,1.71,1.71,0,0,1-.11,1.36c-.06.17,0,.34.31.72l.11.16a1.62,1.62,0,0,1,.15,1.78c-.11.2-.11.24.06.42a1.34,1.34,0,0,1,.2,1.65c-.06.09,0,.28.07.32l-.19.18Z"/><ellipse class="cls-1" cx="16.72" cy="16.41" rx="1.73" ry="2.17"/><path d="M14.65,20.59l-.43-.9.21.45-.31-.38a.24.24,0,0,0,.05-.19,1.2,1.2,0,0,1,.18-1.47.6.6,0,0,0,.09-.13h0a.45.45,0,0,0,0-.15,1.42,1.42,0,0,1,.13-1.57l.09-.13c.22-.32.28-.44.24-.54a1.72,1.72,0,0,1-.09-1,1.24,1.24,0,0,1,.81-.91,1.36,1.36,0,0,1,1.65,1l-.91.4c-.1-.22-.3-.46-.38-.43s-.18.13-.2.2a.74.74,0,0,0,.06.4,1.53,1.53,0,0,1-.36,1.48l-.09.12a.45.45,0,0,0-.06.55,1.12,1.12,0,0,1-.19,1.4c-.11.14-.11.2,0,.33a1.11,1.11,0,0,1,.07.88A1,1,0,0,1,14.65,20.59Z"/><path d="M14,21.1l-.44-.9.22.45-.31-.38a.27.27,0,0,0,.05-.19,1.21,1.21,0,0,1,.17-1.47.54.54,0,0,0,.1-.13h0a.38.38,0,0,0,0-.14,1.43,1.43,0,0,1,.12-1.58l.1-.13c.21-.32.28-.44.24-.54a1.52,1.52,0,0,1-.08-1.21,1.43,1.43,0,0,1,.85-.73l.36.93c-.19.08-.28.15-.3.2s.05.32.1.44a1.52,1.52,0,0,1-.35,1.48l-.09.12c-.17.26-.16.38-.07.55a1.11,1.11,0,0,1-.18,1.4.24.24,0,0,0-.05.33,1.11,1.11,0,0,1,.08.88A1.09,1.09,0,0,1,14,21.1Z"/><path d="M18.77,20.59A1,1,0,0,1,18.3,20a1.11,1.11,0,0,1,.07-.88c.07-.13.08-.19,0-.33a1.11,1.11,0,0,1-.18-1.4c.09-.17.1-.3-.07-.55L18,16.69a1.51,1.51,0,0,1-.35-1.48.65.65,0,0,0,0-.45.31.31,0,0,0-.18-.15c-.08,0-.29.23-.38.43l-.91-.4c.29-.66.93-1.24,1.65-1a1.26,1.26,0,0,1,.74.67,1.69,1.69,0,0,1,0,1.23c0,.1,0,.22.24.54l.09.13A1.4,1.4,0,0,1,19,17.82.45.45,0,0,0,19,18h0a.6.6,0,0,0,.09.13,1.2,1.2,0,0,1,.18,1.47s0,.15.05.19l-.21.18Z"/><path d="M19.45,21.1a1,1,0,0,1-.47-.62,1.07,1.07,0,0,1,.07-.88c.07-.13.07-.19-.05-.33a1.11,1.11,0,0,1-.18-1.4c.09-.17.1-.29-.07-.55l-.09-.12a1.53,1.53,0,0,1-.35-1.48c.05-.12.14-.35.1-.44s-.11-.12-.3-.2l.36-.93a1.43,1.43,0,0,1,.85.73,1.52,1.52,0,0,1-.08,1.21c0,.1,0,.22.24.54l.1.13a1.45,1.45,0,0,1,.13,1.58.34.34,0,0,0-.06.14h0a.54.54,0,0,0,.1.13,1.2,1.2,0,0,1,.17,1.47.24.24,0,0,0,.06.19l-.22.18Z"/></svg>