<svg id="Layer_1" data-name="Layer 1" xmlns="http://www.w3.org/2000/svg" viewBox="0 0 55.5 55.67"><defs><style>.cls-1{fill:#fff;}.cls-2{fill:#ccc;}</style></defs><title>Artboard 74</title><path class="cls-1" d="M27.4,50.4A23.22,23.22,0,1,1,50.62,27.18,23.24,23.24,0,0,1,27.4,50.4Z"/><path class="cls-2" d="M27.4,4.47A22.72,22.72,0,1,1,4.69,27.18,22.74,22.74,0,0,1,27.4,4.47m0-1h0A23.72,23.72,0,0,0,3.69,27.18h0A23.72,23.72,0,0,0,27.4,50.9h0A23.72,23.72,0,0,0,51.12,27.18h0A23.72,23.72,0,0,0,27.4,3.47Z"/></svg>