<svg xmlns="http://www.w3.org/2000/svg" viewBox="0 0 33.24 33.24"><defs><style>.cls-1{isolation:isolate;}.cls-2{fill:#fff;}.cls-3{mix-blend-mode:multiply;}.cls-4{fill:#eb5424;}</style></defs><title>Artboard 30</title><g class="cls-1"><g id="Layer_1" data-name="Layer 1"><polygon class="cls-2" points="16.62 4.99 5.12 13.34 9.51 26.86 23.73 26.86 28.12 13.34 16.62 4.99"/><path d="M23.73,27.36H9.51A.51.51,0,0,1,9,27L4.65,13.5a.48.48,0,0,1,.18-.56l11.5-8.36a.53.53,0,0,1,.59,0l11.5,8.36a.51.51,0,0,1,.18.56L24.2,27A.49.49,0,0,1,23.73,27.36Zm-13.85-1H23.37l4.16-12.83L16.62,5.61,5.71,13.53Z"/><g class="cls-3"><polygon class="cls-4" points="16.62 7.84 7.79 14.25 11.16 24.64 22.08 24.64 25.45 14.25 16.62 7.84"/></g><ellipse class="cls-2" cx="16.41" cy="15.72" rx="2.6" ry="3.27"/><path d="M13.48,21.47,13,20.39l-.1.07a.46.46,0,0,0,.09-.37,1.56,1.56,0,0,1,.23-1.94c.19-.22.19-.26.07-.5a1.89,1.89,0,0,1,.17-2.09l.13-.19c.31-.44.43-.64.35-.84a2.19,2.19,0,0,1,0-1.63,1.72,1.72,0,0,1,1-.9c1-.37,1.8.42,2.19,1.3l-1.1.48c-.1-.23-.43-.74-.65-.66a.49.49,0,0,0-.31.26,1,1,0,0,0,0,.71,2,2,0,0,1-.49,2l-.12.17a.73.73,0,0,0-.1.87A1.48,1.48,0,0,1,14.07,19a.42.42,0,0,0-.08.56,1.47,1.47,0,0,1,.1,1.15A1.39,1.39,0,0,1,13.48,21.47Z"/><path d="M12.54,22.19,12,21.11a.26.26,0,0,0-.1.07c.05-.06.14-.27.08-.37a1.59,1.59,0,0,1,.24-1.95c.19-.21.19-.25.07-.49a1.91,1.91,0,0,1,.17-2.1l.13-.19c.31-.44.43-.64.35-.84A2.4,2.4,0,0,1,12.74,14,1.72,1.72,0,0,1,14,12.67l.43,1.11c-.3.12-.46.25-.49.39a1.77,1.77,0,0,0,.16.64,2,2,0,0,1-.49,2l-.12.17c-.26.4-.24.6-.1.87a1.48,1.48,0,0,1-.24,1.85.41.41,0,0,0-.08.56,1.49,1.49,0,0,1,.1,1.16A1.45,1.45,0,0,1,12.54,22.19Z"/><path d="M19.32,21.47a1.33,1.33,0,0,1-.6-.81,1.43,1.43,0,0,1,.09-1.15.4.4,0,0,0-.08-.56,1.48,1.48,0,0,1-.24-1.85.73.73,0,0,0-.1-.87l-.12-.17a2,2,0,0,1-.49-2,1,1,0,0,0,0-.71.49.49,0,0,0-.31-.26c-.21-.08-.55.44-.64.66l-1.11-.48C16.16,12.42,17,11.63,18,12a1.72,1.72,0,0,1,1,.9,2.19,2.19,0,0,1,0,1.63c-.08.2,0,.4.35.84l.13.19a1.89,1.89,0,0,1,.17,2.09c-.12.24-.12.28.08.5a1.59,1.59,0,0,1,.23,1.94c-.06.11,0,.31.08.37l-.1-.07Z"/><path d="M20.26,22.19a1.39,1.39,0,0,1-.6-.81,1.45,1.45,0,0,1,.09-1.16.4.4,0,0,0-.08-.56,1.48,1.48,0,0,1-.24-1.85c.14-.27.16-.47-.1-.87l-.12-.17a2,2,0,0,1-.49-2,1.59,1.59,0,0,0,.16-.64c0-.14-.19-.27-.49-.39l.44-1.11A1.72,1.72,0,0,1,20.06,14a2.4,2.4,0,0,1-.22,1.26c-.08.2,0,.4.35.84l.13.19a1.93,1.93,0,0,1,.18,2.1c-.13.24-.12.28.07.49a1.6,1.6,0,0,1,.23,1.95c-.06.1,0,.31.08.37a.26.26,0,0,0-.1-.07Z"/></g></g></svg>