<svg xmlns="http://www.w3.org/2000/svg" viewBox="0 0 33.24 33.24"><defs><style>.cls-1{isolation:isolate;}.cls-2{fill:#fff;}.cls-2,.cls-3{stroke:#000;stroke-linecap:round;stroke-linejoin:round;}.cls-3{fill:none;}.cls-4{mix-blend-mode:multiply;}.cls-5{fill:#eb5424;}</style></defs><title>Artboard 49</title><g class="cls-1"><g id="Layer_1" data-name="Layer 1"><rect class="cls-2" x="8.78" y="4.18" width="13.92" height="24.6" rx="1.69" ry="1.69"/><line class="cls-3" x1="9.21" y1="8.14" x2="22.27" y2="8.14"/><line class="cls-3" x1="14.04" y1="6.11" x2="17.44" y2="6.11"/><line class="cls-3" x1="8.99" y1="24.23" x2="22.49" y2="24.23"/><g class="cls-4"><circle class="cls-5" cx="15.74" cy="26.55" r="1.03"/></g><path class="cls-5" d="M20.84,17.19l-.07,0a.74.74,0,0,0-.31,1.17l0,.05a.74.74,0,0,1-.7,1.21h-.06a.74.74,0,0,0-.86.86v.06a.74.74,0,0,1-1.21.7l-.05,0a.73.73,0,0,0-1.17.31l0,.07a.75.75,0,0,1-1.4,0l0-.07a.73.73,0,0,0-1.17-.31l0,0a.74.74,0,0,1-1.21-.7v-.06a.74.74,0,0,0-.86-.86h-.06a.74.74,0,0,1-.7-1.21l0-.05a.74.74,0,0,0-.31-1.17l-.07,0a.75.75,0,0,1,0-1.4l.07,0A.73.73,0,0,0,11,14.6l0,0a.74.74,0,0,1,.7-1.21h.06a.74.74,0,0,0,.86-.86v-.06a.74.74,0,0,1,1.21-.7l0,0A.73.73,0,0,0,15,11.46l0-.07a.75.75,0,0,1,1.4,0l0,.07a.73.73,0,0,0,1.17.31l.05,0a.74.74,0,0,1,1.21.7v.06a.74.74,0,0,0,.86.86h.06a.74.74,0,0,1,.7,1.21l0,0a.73.73,0,0,0,.31,1.17l.07,0A.75.75,0,0,1,20.84,17.19Z"/><circle class="cls-5" cx="15.74" cy="16.49" r="3.25"/><circle class="cls-2" cx="15.74" cy="16.49" r="1.8"/></g></g></svg>