<svg id="Layer_1" data-name="Layer 1" xmlns="http://www.w3.org/2000/svg" viewBox="0 0 188.29 41.35"><defs><style>.cls-1{fill:#fff;stroke:#000;}.cls-1,.cls-2{stroke-linecap:round;stroke-linejoin:round;}.cls-2{fill:none;stroke:#eb5424;stroke-dasharray:2;}</style></defs><title>Artboard 77</title><path class="cls-1" d="M162.53,37.28c4.63,0,8.38-7.5,8.38-16.76s-3.75-16.77-8.38-16.77h-3.71V37.28Z"/><ellipse class="cls-1" cx="158.82" cy="20.52" rx="8.38" ry="16.76"/><path class="cls-1" d="M157.91,33.51H20.22V7.12H157.45c3.65,0,6.6,5.91,6.6,13.2s-3,13.19-6.6,13.19"/><path class="cls-1" d="M26.37,37.28c4.62,0,8.38-7.5,8.38-16.76S31,3.75,26.37,3.75H22.66V37.28Z"/><ellipse class="cls-1" cx="22.66" cy="20.52" rx="8.38" ry="16.76"/><ellipse cx="22.39" cy="20.18" rx="3.67" ry="10.1"/><line class="cls-2" x1="184.73" y1="19.89" x2="172.48" y2="19.89"/><line class="cls-2" x1="2.48" y1="19.89" x2="20.73" y2="19.89"/></svg>