<svg id="Layer_1" data-name="Layer 1" xmlns="http://www.w3.org/2000/svg" viewBox="0 0 33.24 33.24"><defs><style>.cls-1{fill:#fff;}.cls-2{fill:#eb5424;}</style></defs><title>Artboard 51</title><polygon class="cls-1" points="16.62 5.41 5.35 13.6 9.65 26.85 23.59 26.85 27.9 13.6 16.62 5.41"/><path d="M24.86,24l-.15,0a.49.49,0,0,1-.32-.63l3.14-9.69-4.28-3.11a.5.5,0,1,1,.59-.81l4.58,3.33a.5.5,0,0,1,.18.55l-3.26,10A.5.5,0,0,1,24.86,24Z"/><path d="M22.46,27.5H9.51A.5.5,0,0,1,9,27.15L7.12,21.31a.5.5,0,0,1,.32-.63.49.49,0,0,1,.63.32l1.81,5.5H22.46a.5.5,0,0,1,.5.5A.51.51,0,0,1,22.46,27.5Z"/><path d="M6.31,17.65a.5.5,0,0,1-.47-.35L4.65,13.63a.47.47,0,0,1,.18-.55l11.5-8.36a.5.5,0,0,1,.6,0l3.34,2.55a.52.52,0,0,1,.1.71.5.5,0,0,1-.7.09L16.61,5.75,5.71,13.67,6.79,17a.5.5,0,0,1-.32.63A.45.45,0,0,1,6.31,17.65Z"/><polygon class="cls-2" points="16.62 9.86 9.59 14.97 12.27 23.25 20.97 23.25 23.66 14.97 16.62 9.86"/><path d="M24.9,24.32a.52.52,0,0,1-.42-.24l-1.09-1.71a.5.5,0,0,1,.84-.54l.83,1.3,1.29-.83a.51.51,0,0,1,.69.16.5.5,0,0,1-.15.69l-1.72,1.09A.5.5,0,0,1,24.9,24.32Z"/><path d="M18.2,8.61a.5.5,0,0,1-.08-1l1.51-.24-.24-1.51a.52.52,0,0,1,.42-.58.51.51,0,0,1,.57.42l.32,2a.51.51,0,0,1-.42.57l-2,.32Z"/><path d="M6.56,23.14a.53.53,0,0,1-.24-.06.51.51,0,0,1-.2-.68l1-1.79a.52.52,0,0,1,.3-.24.51.51,0,0,1,.38,0l1.78,1a.49.49,0,0,1,.2.68.49.49,0,0,1-.67.2l-1.35-.73L7,22.87A.5.5,0,0,1,6.56,23.14Z"/></svg>