<svg id="Layer_1" data-name="Layer 1" xmlns="http://www.w3.org/2000/svg" viewBox="0 0 33.24 33.24"><defs><style>.cls-1{fill:#fff;}.cls-2{fill:#eb5424;}</style></defs><title>Artboard 27</title><rect class="cls-1" x="6.37" y="15.87" width="20.28" height="8.99"/><path d="M26.66,25.34H6.37a.47.47,0,0,1-.47-.48v-9a.47.47,0,0,1,.47-.48H26.66a.48.48,0,0,1,.48.48v9A.48.48,0,0,1,26.66,25.34Zm-19.81-1H26.18v-8H6.85Z"/><path class="cls-1" d="M7.24,10.29H25.79A1.74,1.74,0,0,1,27.54,12v5a0,0,0,0,1,0,0H5.5a0,0,0,0,1,0,0V12A1.74,1.74,0,0,1,7.24,10.29Z"/><path d="M27.54,17.5H5.5A.48.48,0,0,1,5,17V12A2.15,2.15,0,0,1,7.17,9.81h18.7A2.16,2.16,0,0,1,28,12V17A.49.49,0,0,1,27.54,17.5ZM6,16.54H27.06V12a1.2,1.2,0,0,0-1.19-1.19H7.17A1.19,1.19,0,0,0,6,12Z"/><rect class="cls-2" x="9.84" y="14.67" width="3.59" height="4.7"/><path d="M13.43,19.85H9.84a.49.49,0,0,1-.48-.48v-4.7a.48.48,0,0,1,.48-.48h3.59a.47.47,0,0,1,.48.48v4.7A.48.48,0,0,1,13.43,19.85Zm-3.11-1H13V15.15H10.32Z"/><rect class="cls-2" x="19.6" y="14.67" width="3.59" height="4.7"/><path d="M23.19,19.85H19.6a.49.49,0,0,1-.48-.48v-4.7a.48.48,0,0,1,.48-.48h3.59a.47.47,0,0,1,.48.48v4.7A.48.48,0,0,1,23.19,19.85Zm-3.11-1h2.63V15.15H20.08Z"/><path d="M21.73,10.77H11.3a.48.48,0,0,1-.48-.48V7.65A1.25,1.25,0,0,1,12.07,6.4H21a1.25,1.25,0,0,1,1.25,1.25v2.64A.47.47,0,0,1,21.73,10.77Zm-10-1h9.47V7.65a.3.3,0,0,0-.29-.3H12.07a.3.3,0,0,0-.29.3Z"/></svg>