<svg id="Layer_1" data-name="Layer 1" xmlns="http://www.w3.org/2000/svg" viewBox="0 0 33.24 33.24"><defs><style>.cls-1{fill:#eb5424;}.cls-2{fill:#fff;}</style></defs><title>Artboard 15</title><rect class="cls-1" x="9.93" y="11.37" width="13.64" height="12.14"/><path d="M23.57,24H9.93a.5.5,0,0,1-.5-.5V11.37a.5.5,0,0,1,.5-.5H23.57a.5.5,0,0,1,.5.5V23.52A.5.5,0,0,1,23.57,24ZM10.43,23H23.07V11.87H10.43Z"/><rect class="cls-2" x="8.61" y="15.2" width="16.27" height="4.5"/><path d="M24.88,20.2H8.61a.51.51,0,0,1-.5-.5V15.2a.5.5,0,0,1,.5-.5H24.88a.5.5,0,0,1,.5.5v4.5A.5.5,0,0,1,24.88,20.2Zm-15.77-1H24.38V15.7H9.11Z"/><rect class="cls-2" x="8.61" y="8.27" width="16.27" height="4.5"/><path d="M24.88,13.27H8.61a.51.51,0,0,1-.5-.5V8.27a.5.5,0,0,1,.5-.5H24.88a.5.5,0,0,1,.5.5v4.5A.5.5,0,0,1,24.88,13.27Zm-15.77-1H24.38V8.77H9.11Z"/><rect class="cls-2" x="8.61" y="22.12" width="16.27" height="4.5"/><path d="M24.88,27.12H8.61a.5.5,0,0,1-.5-.5v-4.5a.51.51,0,0,1,.5-.5H24.88a.5.5,0,0,1,.5.5v4.5A.5.5,0,0,1,24.88,27.12Zm-15.77-1H24.38v-3.5H9.11Z"/><path d="M8.14,25.19H5.24a.51.51,0,0,1-.5-.5.5.5,0,0,1,.5-.5h2.9a.5.5,0,0,1,.5.5A.51.51,0,0,1,8.14,25.19Z"/><path d="M28,25.19H25.11a.5.5,0,0,1-.5-.5.5.5,0,0,1,.5-.5H28a.5.5,0,0,1,.5.5A.5.5,0,0,1,28,25.19Z"/><rect x="7.13" y="23.78" width="1.26" height="1.79"/><rect x="25.11" y="23.78" width="1.26" height="1.79"/><path class="cls-1" d="M22.24,17.82H16.51a.5.5,0,1,1,0-1h5.73a.5.5,0,1,1,0,1Z"/><path class="cls-1" d="M22.43,24.92H16.71a.5.5,0,0,1-.5-.5.5.5,0,0,1,.5-.5h5.72a.5.5,0,0,1,.5.5A.5.5,0,0,1,22.43,24.92Z"/><path class="cls-1" d="M22.24,11H16.51a.5.5,0,0,1-.5-.5.5.5,0,0,1,.5-.5h5.73a.51.51,0,0,1,.5.5A.5.5,0,0,1,22.24,11Z"/><circle cx="14.03" cy="10.52" r="0.62"/><circle cx="14.03" cy="17.38" r="0.62"/><circle cx="14.03" cy="24.3" r="0.62"/><polygon class="cls-2" points="22.85 8.23 18.64 8.23 19.59 5.86 21.9 5.86 22.85 8.23"/><path d="M22.85,8.73H18.64a.51.51,0,0,1-.42-.22.5.5,0,0,1,0-.46l.95-2.38a.51.51,0,0,1,.47-.32H21.9a.51.51,0,0,1,.47.32l.94,2.38a.47.47,0,0,1,0,.46A.49.49,0,0,1,22.85,8.73Zm-3.47-1h2.73l-.55-1.38H19.92Z"/></svg>