<svg id="Layer_1" data-name="Layer 1" xmlns="http://www.w3.org/2000/svg" viewBox="0 0 33.24 33.24"><defs><style>.cls-1{fill:#fff;}.cls-2{fill:#eb5424;}</style></defs><title>Artboard 46</title><path d="M17.11,16.11a.5.5,0,0,1,0-1H26a.5.5,0,0,1,.5.5.5.5,0,0,1-.5.5Z"/><path d="M6.43,19.68a.5.5,0,0,1-.16-1l9.14-3.12-7.24-5a.5.5,0,0,1-.12-.69.49.49,0,0,1,.69-.13l8.06,5.59a.52.52,0,0,1,.21.48.5.5,0,0,1-.34.4L6.59,19.65A.41.41,0,0,1,6.43,19.68Z"/><line class="cls-1" x1="20.5" y1="6.65" x2="16.51" y2="15.74"/><path d="M16.51,16.24a.48.48,0,0,1-.2,0,.51.51,0,0,1-.26-.66l4-9.09a.49.49,0,0,1,.66-.26.5.5,0,0,1,.25.66l-4,9.09A.5.5,0,0,1,16.51,16.24Z"/><line class="cls-1" x1="20.87" y1="21.68" x2="16.59" y2="15.93"/><path d="M20.87,22.18a.51.51,0,0,1-.4-.2l-4.28-5.75a.5.5,0,0,1,.81-.6l4.27,5.75a.5.5,0,0,1-.4.8Z"/><line class="cls-1" x1="14.23" y1="26.46" x2="16.59" y2="15.93"/><path d="M14.23,27h-.11a.51.51,0,0,1-.38-.6l2.37-10.53a.49.49,0,0,1,.59-.38.5.5,0,0,1,.38.6L14.71,26.57A.49.49,0,0,1,14.23,27Z"/><circle class="cls-2" cx="8.99" cy="10.57" r="1.79"/><circle class="cls-2" cx="26.06" cy="15.54" r="1.79"/><circle class="cls-2" cx="20.76" cy="21.73" r="1.27"/><circle class="cls-2" cx="14.26" cy="26.12" r="2"/><circle class="cls-2" cx="6.72" cy="19.15" r="1.33"/><circle class="cls-1" cx="16.59" cy="15.93" r="2.4"/><path d="M16.6,18.82a3.34,3.34,0,0,1-.62-.06,2.9,2.9,0,0,1,1.22-5.67A2.92,2.92,0,0,1,19,14.36h0a2.9,2.9,0,0,1-.86,4A2.87,2.87,0,0,1,16.6,18.82Zm0-4.79a2,2,0,0,0-1,.3,1.9,1.9,0,1,0,2.63.57h0A1.91,1.91,0,0,0,16.59,14Z"/><circle class="cls-2" cx="20.58" cy="6.36" r="1.24"/></svg>