<svg xmlns="http://www.w3.org/2000/svg" viewBox="0 0 33.24 33.24"><defs><style>.cls-1{isolation:isolate;}.cls-2{fill:#fff;}.cls-3{mix-blend-mode:multiply;}.cls-4{fill:#eb5424;}</style></defs><title>Artboard 14</title><g class="cls-1"><g id="Layer_1" data-name="Layer 1"><rect class="cls-2" x="7.4" y="5.12" width="18.44" height="23"/><path d="M25.84,28.62H7.4a.5.5,0,0,1-.5-.5v-23a.5.5,0,0,1,.5-.5H25.84a.5.5,0,0,1,.5.5v23A.5.5,0,0,1,25.84,28.62Zm-17.94-1H25.34v-22H7.9Z"/><path d="M25.84,16.94H7.4a.5.5,0,0,1-.5-.5V9.33a.51.51,0,0,1,.5-.5H25.84a.5.5,0,0,1,.5.5v7.11A.5.5,0,0,1,25.84,16.94Zm-17.94-1H25.34V9.83H7.9Z"/><circle cx="18.59" cy="7.1" r="0.66"/><path d="M23.94,7.6H20.87a.51.51,0,0,1-.5-.5.5.5,0,0,1,.5-.5h3.07a.5.5,0,0,1,.5.5A.5.5,0,0,1,23.94,7.6Z"/><path d="M18.37,20H14.88a.5.5,0,0,1-.5-.5.5.5,0,0,1,.5-.5h3.49a.5.5,0,0,1,.5.5A.51.51,0,0,1,18.37,20Z"/><path d="M15.44,23.2H9.84a.51.51,0,0,1-.5-.5.5.5,0,0,1,.5-.5h5.6a.5.5,0,0,1,.5.5A.51.51,0,0,1,15.44,23.2Z"/><path d="M15.44,25.5H9.84a.51.51,0,0,1-.5-.5.5.5,0,0,1,.5-.5h5.6a.5.5,0,0,1,.5.5A.51.51,0,0,1,15.44,25.5Z"/><path d="M23.4,23.2H17.81a.5.5,0,0,1-.5-.5.5.5,0,0,1,.5-.5H23.4a.5.5,0,0,1,.5.5A.5.5,0,0,1,23.4,23.2Z"/><path d="M23.4,25.5H17.81a.5.5,0,0,1-.5-.5.5.5,0,0,1,.5-.5H23.4a.5.5,0,0,1,.5.5A.5.5,0,0,1,23.4,25.5Z"/><g class="cls-3"><rect class="cls-4" x="7.64" y="9.29" width="17.95" height="7.15"/></g></g></g></svg>