<svg id="Layer_1" data-name="Layer 1" xmlns="http://www.w3.org/2000/svg" viewBox="0 0 33.24 33.24"><defs><style>.cls-1{fill:#fff;}.cls-2{fill:#eb5424;}</style></defs><title>Artboard 43</title><path class="cls-1" d="M26.14,8.4V24.84c0,1.26-4.26,2.28-9.52,2.28s-9.51-1-9.51-2.28V8.4"/><path d="M16.62,27.62c-3.46,0-10-.58-10-2.78V8.4a.5.5,0,0,1,.5-.5.51.51,0,0,1,.5.5V24.84c0,.53,3.06,1.78,9,1.78s9-1.25,9-1.78V8.4a.5.5,0,0,1,.5-.5.51.51,0,0,1,.5.5V24.84C26.64,27,20.09,27.62,16.62,27.62Z"/><ellipse class="cls-2" cx="16.62" cy="8.4" rx="9.51" ry="2.28"/><path d="M16.62,11.19c-3.46,0-10-.59-10-2.79s6.55-2.78,10-2.78,10,.58,10,2.78S20.09,11.19,16.62,11.19Zm0-4.57c-6,0-9,1.25-9,1.78s3.06,1.79,9,1.79,9-1.25,9-1.79S22.57,6.62,16.62,6.62Z"/><path class="cls-1" d="M26.14,19.32c0,1.26-4.26,2.28-9.52,2.28s-9.51-1-9.51-2.28"/><path d="M16.62,22.1c-3.46,0-10-.58-10-2.78a.5.5,0,0,1,.5-.5.5.5,0,0,1,.5.5c0,.53,3.06,1.78,9,1.78s9-1.25,9-1.78a.5.5,0,0,1,.5-.5.5.5,0,0,1,.5.5C26.64,21.52,20.09,22.1,16.62,22.1Z"/><path class="cls-1" d="M26.14,13.86c0,1.26-4.26,2.28-9.52,2.28s-9.51-1-9.51-2.28"/><path d="M16.62,16.64c-3.46,0-10-.58-10-2.78a.5.5,0,0,1,.5-.5.5.5,0,0,1,.5.5c0,.53,3.06,1.78,9,1.78s9-1.25,9-1.78a.5.5,0,0,1,.5-.5.5.5,0,0,1,.5.5C26.64,16.06,20.09,16.64,16.62,16.64Z"/><path d="M16.62,13.5a.25.25,0,0,1-.25-.25.25.25,0,0,1,.25-.25c1.18,0,2.34-.05,3.43-.15a.27.27,0,0,1,.28.23.26.26,0,0,1-.23.27C19,13.45,17.82,13.5,16.62,13.5Z"/><path d="M22.84,13a.26.26,0,0,1-.25-.2.27.27,0,0,1,.2-.3l.77-.17a.24.24,0,0,1,.3.17.25.25,0,0,1-.18.31c-.25.07-.51.13-.79.18Z"/><path d="M16.62,18.92a.25.25,0,0,1,0-.5,34.32,34.32,0,0,0,3.43-.16.28.28,0,0,1,.28.23.25.25,0,0,1-.23.27C19,18.86,17.82,18.92,16.62,18.92Z"/><path d="M22.84,18.36a.25.25,0,0,1-.05-.49l.77-.18a.25.25,0,0,1,.3.18.24.24,0,0,1-.18.3l-.79.19Z"/><path d="M16.62,24.33a.25.25,0,0,1,0-.5c1.18,0,2.34,0,3.43-.15a.26.26,0,0,1,.28.22.25.25,0,0,1-.23.27C19,24.28,17.82,24.33,16.62,24.33Z"/><path d="M22.84,23.78a.26.26,0,0,1-.25-.2.26.26,0,0,1,.2-.3c.27-.05.52-.11.77-.18a.25.25,0,0,1,.3.18.25.25,0,0,1-.18.31l-.79.18Z"/></svg>