<svg id="Layer_1" data-name="Layer 1" xmlns="http://www.w3.org/2000/svg" viewBox="0 0 33.24 33.24"><defs><style>.cls-1{fill:#fff;}</style></defs><title>Artboard 59</title><ellipse class="cls-1" cx="16.64" cy="13.72" rx="5.71" ry="7.18"/><path d="M16.64,21.4c-3.43,0-6.21-3.44-6.21-7.68S13.21,6,16.64,6s6.21,3.45,6.21,7.68S20.06,21.4,16.64,21.4ZM16.64,7c-2.88,0-5.21,3-5.21,6.68s2.33,6.68,5.21,6.68,5.21-3,5.21-6.68S19.51,7,16.64,7Z"/><path d="M10.29,26.51,9,23.8a.85.85,0,0,0-.29.2c.11-.13.24-.48.17-.6a3.67,3.67,0,0,1,.53-4.49c.37-.41.37-.41.13-.87a4.35,4.35,0,0,1,.39-4.79l.29-.41c.67-1,.87-1.34.74-1.68a5,5,0,0,1-.05-3.72,3.86,3.86,0,0,1,2.23-2.05c2.21-.85,4.15.93,5,2.94l-2.75,1.2,1.38-.6-1.37.6c-.3-.66-.93-1.45-1.2-1.34a.9.9,0,0,0-.57.46,2.06,2.06,0,0,0,.11,1.42c.73,1.89-.32,3.39-1.08,4.49l-.27.38c-.53.78-.49,1.18-.21,1.71a3.43,3.43,0,0,1-.55,4.26c-.39.43-.36.65-.15,1a3.37,3.37,0,0,1,.22,2.67A3.23,3.23,0,0,1,10.29,26.51Z"/><path d="M8.23,28.07l-1.3-2.7a1.17,1.17,0,0,0-.29.2c.11-.13.24-.49.17-.61a3.66,3.66,0,0,1,.54-4.48c.37-.41.37-.41.13-.87a4.34,4.34,0,0,1,.39-4.79l.28-.41c.68-1,.88-1.35.75-1.68a5.47,5.47,0,0,1-.49-2.86,4,4,0,0,1,2.83-3l1.08,2.8c-.27.1-.9.38-1,.7a3.37,3.37,0,0,0,.33,1.3c.73,1.88-.32,3.39-1.09,4.48l-.26.38c-.53.79-.49,1.18-.22,1.72a3.42,3.42,0,0,1-.55,4.26c-.38.43-.35.65-.15,1a3.35,3.35,0,0,1,.22,2.68A3.21,3.21,0,0,1,8.23,28.07Z"/><path d="M23,26.51a3.26,3.26,0,0,1-1.42-1.9,3.33,3.33,0,0,1,.22-2.67.74.74,0,0,0-.15-1A3.42,3.42,0,0,1,21,16.65c.28-.53.32-.93-.21-1.71l-.26-.38c-.77-1.1-1.82-2.6-1.09-4.49a2,2,0,0,0,.11-1.42A.9.9,0,0,0,19,8.19c-.25-.11-.9.68-1.19,1.34l-2.75-1.2c.87-2,2.82-3.79,5-2.94a3.84,3.84,0,0,1,2.23,2.05,4.9,4.9,0,0,1,0,3.72c-.13.34.07.71.75,1.68l.28.41A4.35,4.35,0,0,1,23.7,18c-.24.46-.24.46.13.87a3.65,3.65,0,0,1,.53,4.49c-.06.12.07.47.17.6a.85.85,0,0,0-.29-.2Z"/><path d="M25,28.07a3.21,3.21,0,0,1-1.42-1.89,3.35,3.35,0,0,1,.22-2.68c.21-.37.23-.59-.15-1a3.42,3.42,0,0,1-.55-4.26c.28-.54.32-.93-.22-1.72l-.26-.38c-.77-1.09-1.81-2.6-1.08-4.48a3.18,3.18,0,0,0,.32-1.3c-.05-.32-.68-.6-.95-.7L22,6.84a4,4,0,0,1,2.83,3,5.47,5.47,0,0,1-.5,2.86c-.13.33.08.71.75,1.68l.29.41a4.36,4.36,0,0,1,.39,4.79c-.24.46-.24.46.13.87A3.67,3.67,0,0,1,26.43,25c-.07.12.06.48.17.61a1.17,1.17,0,0,0-.29-.2Z"/></svg>