<svg id="Layer_1" data-name="Layer 1" xmlns="http://www.w3.org/2000/svg" viewBox="0 0 33.24 33.24"><defs><style>.cls-1{fill:#fff;}.cls-1,.cls-2{stroke:#000;stroke-linecap:round;stroke-linejoin:round;}.cls-2{fill:none;}.cls-3{fill:#eb5424;}</style></defs><title>Artboard 19</title><rect class="cls-1" x="6.95" y="6.44" width="19.4" height="21.05"/><polyline class="cls-2" points="6.95 18.35 6.95 10.87 26.35 10.87 26.35 18.35"/><circle cx="18.72" cy="8.52" r="0.69"/><line class="cls-2" x1="21.12" y1="8.52" x2="24.35" y2="8.52"/><line class="cls-2" x1="14.81" y1="21.61" x2="18.49" y2="21.61"/><path class="cls-3" d="M22.42,19.94l-.07,0A.83.83,0,0,0,22,21.29l.05.05a.83.83,0,0,1-.78,1.36l-.07,0a.84.84,0,0,0-1,1v.07a.83.83,0,0,1-1.35.79l-.06-.05a.83.83,0,0,0-1.32.35l0,.07a.83.83,0,0,1-1.56,0l0-.07a.83.83,0,0,0-1.32-.35l-.05.05a.84.84,0,0,1-1.36-.79v-.07a.83.83,0,0,0-1-1l-.07,0a.84.84,0,0,1-.79-1.36l.05-.05A.83.83,0,0,0,11,20l-.08,0a.84.84,0,0,1,0-1.57l.08,0A.83.83,0,0,0,11.39,17L11.34,17a.83.83,0,0,1,.79-1.35h.07a.83.83,0,0,0,1-1v-.07a.83.83,0,0,1,1.36-.78l.05,0a.82.82,0,0,0,1.32-.35l0-.07a.83.83,0,0,1,1.56,0l0,.07a.83.83,0,0,0,1.32.35l.06,0a.83.83,0,0,1,1.35.78v.07a.84.84,0,0,0,1,1h.07A.83.83,0,0,1,22,17L22,17a.83.83,0,0,0,.36,1.32l.07,0A.84.84,0,0,1,22.42,19.94Z"/><circle class="cls-3" cx="16.69" cy="19.16" r="3.66"/><circle class="cls-1" cx="16.69" cy="19.16" r="2.03"/></svg>