<svg id="Layer_1" data-name="Layer 1" xmlns="http://www.w3.org/2000/svg" viewBox="0 0 33.24 33.24"><defs><style>.cls-1{fill:#fff;}.cls-2{fill:#eb5424;}</style></defs><title>Artboard 62</title><polygon class="cls-1" points="16.75 5.12 5.25 18.6 16.75 28.12 28.25 18.6 16.75 5.12"/><path d="M16.76,28.62a.52.52,0,0,1-.32-.11L4.94,19a.48.48,0,0,1-.18-.34.49.49,0,0,1,.12-.37L16.38,4.8a.5.5,0,0,1,.76,0l11.5,13.48a.53.53,0,0,1,.11.37.48.48,0,0,1-.18.34l-11.5,9.52A.51.51,0,0,1,16.76,28.62ZM6,18.54l10.79,8.93,10.79-8.93L16.76,5.89Z"/><polygon class="cls-2" points="16.75 8.28 8.16 18.35 16.75 25.46 25.35 18.35 16.75 8.28"/><circle class="cls-1" cx="19.51" cy="15.66" r="1.35"/><path class="cls-1" d="M17.19,18.59a2.42,2.42,0,0,1,4.65,0c.17.9-1,1.07-2.33,1.07S17,19.55,17.19,18.59Z"/><circle class="cls-1" cx="14.15" cy="15.66" r="1.35"/><path class="cls-1" d="M11.82,18.59a2.43,2.43,0,0,1,4.66,0c.16.9-1,1.07-2.33,1.07S11.59,19.55,11.82,18.59Z"/><path class="cls-2" d="M16.76,12.71a2,2,0,1,1-2,2,2,2,0,0,1,2-2m0-.5a2.47,2.47,0,1,0,2.47,2.47,2.47,2.47,0,0,0-2.47-2.47Z"/><path class="cls-2" d="M16.76,16.41A3.56,3.56,0,0,1,20.16,19c.24,1.32-1.41,1.57-3.4,1.57S13,20.36,13.36,19a3.54,3.54,0,0,1,3.4-2.54m0-.5a4,4,0,0,0-3.88,2.92,1.49,1.49,0,0,0,.23,1.32c.58.73,1.88.89,3.65.89,1.41,0,2.94-.11,3.59-.9a1.45,1.45,0,0,0,.3-1.25,4,4,0,0,0-3.89-3Z"/><circle class="cls-1" cx="16.76" cy="14.67" r="1.97"/><path class="cls-1" d="M13.36,19a3.54,3.54,0,0,1,6.8,0c.24,1.32-1.41,1.57-3.4,1.57S13,20.36,13.36,19Z"/></svg>