<?xml version="1.0" encoding="UTF-8" standalone="no"?>
<svg
   xmlns:dc="http://purl.org/dc/elements/1.1/"
   xmlns:cc="http://creativecommons.org/ns#"
   xmlns:rdf="http://www.w3.org/1999/02/22-rdf-syntax-ns#"
   xmlns:svg="http://www.w3.org/2000/svg"
   xmlns="http://www.w3.org/2000/svg"
   xmlns:sodipodi="http://sodipodi.sourceforge.net/DTD/sodipodi-0.dtd"
   xmlns:inkscape="http://www.inkscape.org/namespaces/inkscape"
   height="681pt"
   viewBox="-21 -81 681.33464 681"
   width="681pt"
   version="1.1"
   id="svg4"
   sodipodi:docname="twitter.svg"
   inkscape:version="1.0.2 (1.0.2+r75+1)">
  <metadata
     id="metadata10">
    <rdf:RDF>
      <cc:Work
         rdf:about="">
        <dc:format>image/svg+xml</dc:format>
        <dc:type
           rdf:resource="http://purl.org/dc/dcmitype/StillImage" />
      </cc:Work>
    </rdf:RDF>
  </metadata>
  <defs
     id="defs8" />
  <sodipodi:namedview
     pagecolor="#ffffff"
     bordercolor="#666666"
     borderopacity="1"
     objecttolerance="10"
     gridtolerance="10"
     guidetolerance="10"
     inkscape:pageopacity="0"
     inkscape:pageshadow="2"
     inkscape:window-width="1920"
     inkscape:window-height="1043"
     id="namedview6"
     showgrid="false"
     inkscape:zoom="0.94933921"
     inkscape:cx="454"
     inkscape:cy="454"
     inkscape:window-x="0"
     inkscape:window-y="0"
     inkscape:window-maximized="1"
     inkscape:current-layer="svg4" />
  <path
     d="m200.964844 515.292969c241.050781 0 372.871094-199.703125 372.871094-372.871094 0-5.671875-.117188-11.320313-.371094-16.9375 25.585937-18.5 47.824218-41.585937 65.371094-67.863281-23.480469 10.441406-48.753907 17.460937-75.257813 20.636718 27.054687-16.230468 47.828125-41.894531 57.625-72.488281-25.320313 15.011719-53.363281 25.917969-83.214844 31.808594-23.914062-25.472656-57.964843-41.402344-95.664062-41.402344-72.367188 0-131.058594 58.6875-131.058594 131.03125 0 10.289063 1.152344 20.289063 3.398437 29.882813-108.917968-5.480469-205.503906-57.625-270.132812-136.921875-11.25 19.363281-17.742188 41.863281-17.742188 65.871093 0 45.460938 23.136719 85.605469 58.316407 109.082032-21.5-.660156-41.695313-6.5625-59.351563-16.386719-.019531.550781-.019531 1.085937-.019531 1.671875 0 63.46875 45.171875 116.460938 105.144531 128.46875-11.015625 2.996094-22.605468 4.609375-34.558594 4.609375-8.429687 0-16.648437-.828125-24.632812-2.363281 16.683594 52.070312 65.066406 89.960937 122.425781 91.023437-44.855469 35.15625-101.359375 56.097657-162.769531 56.097657-10.5625 0-21.003906-.605469-31.2617188-1.816407 57.9999998 37.175781 126.8710938 58.871094 200.8867188 58.871094"
     id="path2"
     style="fill:#079ef9;fill-opacity:1" />
</svg>
