<svg id="Layer_1" data-name="Layer 1" xmlns="http://www.w3.org/2000/svg" viewBox="0 0 33.24 33.24"><defs><style>.cls-1{fill:#fff;}.cls-2{fill:#eb5424;}</style></defs><title>Artboard 63</title><circle class="cls-1" cx="16.64" cy="16.79" r="11.5"/><path d="M16.64,28.79a12,12,0,1,1,12-12A12,12,0,0,1,16.64,28.79Zm0-23a11,11,0,1,0,11,11A11,11,0,0,0,16.64,5.79Z"/><circle class="cls-2" cx="16.66" cy="16.79" r="9.53"/><circle class="cls-1" cx="16.72" cy="12.79" r="3.28"/><path class="cls-1" d="M11.06,19.5a5.88,5.88,0,0,1,5.66-4.23c2.69,0,5.28,2.07,5.67,4.27S20,22.15,16.72,22.15,10.48,21.85,11.06,19.5Z"/></svg>